<!-- Generated by scripts/nameplates.ts. Noto Sans SC Black (SIL OFL 1.1). -->
<svg xmlns="http://www.w3.org/2000/svg" viewBox="0 -122.0 931.3 244.0"><path id="accent" d="M76.6-35.8L76.6-100.8L220.8-100.8L220.8-38.6L107.0-38.6L107.0-35.8Q107.0-32.6 107.0-29.2L107.0-29.2L225.4-29.2L225.4-3.5L174.3-3.5L174.3 5.4L224.7 5.4L224.7 84.8Q224.7 93.1 223.0 97.6Q221.2 102.2 216.2 105.0L216.2 105.0Q211.2 107.5 204.5 108.1Q197.9 108.6 189.9 108.6L189.9 108.6Q189.2 103.6 187.2 97.5Q185.3 91.5 183.0 87.1L183.0 87.1Q186.4 87.3 190.1 87.3L190.1 87.3L194.7 87.3Q196.3 87.3 196.9 86.8Q197.4 86.2 197.4 84.6L197.4 84.6L197.4 72.5L185.5 86.9Q182.6 83.9 177.5 79.8L177.5 79.8Q175.9 78.6 174.3 77.5L174.3 77.5L174.3 108.2L147.8 108.2L147.8 80.5L138.6 91.0Q135.6 87.8 130.1 83.2L130.1 83.2Q127.4 81.2 124.9 79.3L124.9 79.3L124.9 108.4L98.8 108.4L98.8 56.4Q96.7 65.8 94.4 74.7L94.4 74.7Q89.1 93.3 80.4 108.2L80.4 108.2Q77.7 105.4 72.9 102.1Q68.1 98.8 62.9 95.7Q57.8 92.6 54.1 91.2L54.1 91.2Q61.9 77.7 66.5 61.5Q71.1 45.2 73.2 28.0Q75.4 10.9 76.0-5.5Q76.6-21.9 76.6-35.8L76.6-35.8ZM42.7 106.6L12.2 89.9Q16.6 80.5 21.7 68.2Q26.9 56.0 32.0 42.1Q37.2 28.3 41.5 14.3L41.5 14.3L68.5 31.7Q64.9 44.3 60.5 57.1Q56.2 69.9 51.7 82.4Q47.3 94.9 42.7 106.6L42.7 106.6ZM12-21.4L12-21.4L31.0-45.4Q37.0-42.5 44.5-38.6Q52.1-34.7 59.3-30.8Q66.5-26.9 71.1-23.9L71.1-23.9L51.1 3.1Q47.0-0.3 40.0-4.7Q33.1-9.0 25.6-13.5Q18.2-18.0 12-21.4ZM18.2-83.7L18.2-83.7L37.6-107.9Q43.4-105.0 50.7-101.1Q58.0-97.2 65.0-93.4Q72.0-89.6 76.6-86.4L76.6-86.4L56.2-59.4Q52.1-62.8 45.4-67.1Q38.8-71.3 31.5-75.8Q24.1-80.2 18.2-83.7ZM189.0-74.5L107.0-74.5L107.0-64.9L189.0-64.9L189.0-74.5ZM105.6 5.4L105.6 5.4L147.8 5.4L147.8-3.5L106.1-3.5Q106.1-2.6 106.1-1.9L106.1-1.9Q105.9 1.7 105.6 5.4ZM124.9 49.3L124.9 49.3L124.9 69.9L133.3 60.8Q137.9 63.8 143.6 67.9L143.6 67.9Q145.9 69.5 147.8 70.9L147.8 70.9L147.8 50.5L140.0 60.6Q137.0 57.8 131.5 53.9L131.5 53.9Q128.1 51.4 124.9 49.3ZM197.4 69.7L197.4 69.7L197.4 48.2L189.0 59.4Q186.0 56.7 180.5 52.8L180.5 52.8Q177.3 50.7 174.3 48.9L174.3 48.9L174.3 65.4L180.5 58.5Q185.1 61.2 190.3 64.7L190.3 64.7Q194.5 67.6 197.4 69.7ZM147.8 39.9L147.8 29.4L124.9 29.4L124.9 42.9L134.2 31.9Q138.8 34.2 144.3 37.7L144.3 37.7Q146.2 38.8 147.8 39.9L147.8 39.9ZM197.4 40.6L197.4 40.6L197.4 29.4L174.3 29.4L174.3 41.1L182.1 31.7Q186.7 34.0 192.4 37.4L192.4 37.4Q195.1 39.3 197.4 40.6Z M311.1-85.5L311.1-100.8L456.0-100.8L456.0 72.2Q456.0 83.9 453.8 91.2Q451.5 98.6 444.6 102.7L444.6 102.7Q437.7 107.0 428.3 108.1Q419.0 109.1 405.9 109.1L405.9 109.1Q405.5 104.5 404.0 98.3Q402.5 92.1 400.5 86.1Q398.6 80.0 396.3 75.7L396.3 75.7Q403.2 76.1 410.3 76.1L410.3 76.1L419.9 76.1Q422.4 76.1 423.3 75.1Q424.2 74.1 424.2 71.5L424.2 71.5L424.2-71.1L342.3-71.1L342.3 108.9L311.1 108.9L311.1 40.4Q307.0 49.8 302.7 59.2L302.7 59.2Q297.2 71.1 291.2 82.6Q285.3 94.2 279.1 105.7L279.1 105.7L249.6 83.4Q255.0 75.0 261.5 63.6Q267.9 52.3 274.6 39.4Q281.4 26.4 287.3 13.4L287.3 13.4L311.1 33.8L311.1-80.7L294.4-56.9Q290.3-60.3 283.3-64.7Q276.3-69.0 268.8-73.4Q261.2-77.7 254.8-81.2L254.8-81.2L272.9-105.7Q278.9-102.9 286.5-99.0Q294.2-95.1 301.5-91.2L301.5-91.2Q307.2-88.0 311.1-85.5L311.1-85.5ZM351.7 72.2L351.7-21.6L414.8-21.6L414.8 59.2L376.6 59.2L376.6 72.2L351.7 72.2ZM349.8-32.6L349.8-59.6L416.9-59.6L416.9-32.6L349.8-32.6ZM244.1-19.3L244.1-19.3L260.8-44.5Q267.4-42.0 275.5-38.3Q283.7-34.7 291.2-30.9Q298.8-27.1 303.8-23.7L303.8-23.7L286.0 4.2Q281.6 0.8 274.3-3.4Q267.0-7.7 258.9-11.9Q250.9-16.1 244.1-19.3ZM389.0 5.4L376.6 5.4L376.6 31.9L389.0 31.9L389.0 5.4Z"/><path id="ink" d="M497.2-14.8L497.2-97.6L680.3-97.6L680.3 73.6Q680.3 85.7 677.5 92.5Q674.6 99.2 667.3 103.1L667.3 103.1Q660.0 106.8 649.5 107.7Q639.1 108.6 624.5 108.6L624.5 108.6Q623.6 102.0 620.6 92.8L620.6 92.8Q618.7 87.1 616.7 82.5L616.7 82.5L573.2 82.5L573.2 94.9L543.2 94.9L543.2 18.7L631.8 18.7L631.8 78.4Q633.6 78.4 635.2 78.4L635.2 78.4L641.6 78.4Q644.6 78.4 645.8 77.3Q646.9 76.1 646.9 73.4L646.9 73.4L646.9-67.0L530.1-67.0L530.1-14.8Q530.1-0.8 529.1 15.9Q528.1 32.6 525.1 49.6Q522.1 66.5 516.5 82.1Q510.9 97.6 501.8 109.8L501.8 109.8Q499.0 106.6 494.0 102.4Q488.9 98.3 483.7 94.4Q478.4 90.5 474.7 88.7L474.7 88.7Q482.5 78.2 487.1 65.4Q491.7 52.5 493.9 38.7Q496.0 24.8 496.6 11.1Q497.2-2.6 497.2-14.8L497.2-14.8ZM540.9-26.7L540.9-51.6L571.4-51.6L571.4-64.2L602.7-64.2L602.7-51.6L634.8-51.6L634.8-26.7L602.7-26.7L602.7-16.8L638.7-16.8L638.7 9.0L536.6 9.0L536.6-16.8L571.4-16.8L571.4-26.7L540.9-26.7ZM573.2 43.4L573.2 57.8L601.1 57.8L601.1 43.4L573.2 43.4Z M786.7 107.7L786.7-100.4L908.0-100.4L908.0-96.0Q907.8-91.5 907.6-88.5L907.6-88.5Q906.9-64.2 904.8-52.0Q902.8-39.7 898.4-34.7Q894.1-29.6 888.0-27.8Q881.9-26.0 875.3-25.3L875.3-25.3Q869.1-24.8 859.7-24.8Q850.3-24.8 840.0-25.1L840.0-25.1Q839.8-31.0 837.4-38.8Q835.0-46.6 831.8-51.9L831.8-51.9Q838.0-51.4 843.5-51.2Q849.0-50.9 853.4-50.8Q857.9-50.7 860.4-50.7L860.4-50.7Q863.6-50.7 865.7-51.1Q867.7-51.4 869.3-53.0Q871.0-54.6 871.9-59.6L871.9-59.6Q872.3-63.3 872.8-69.7L872.8-69.7L819.7-69.7L819.7-19.6L885.4-19.6L891.1-20.5L912.4-14.3Q908.5 15.5 898.9 39.0L898.9 39.0Q893.8 51.4 887.2 61.9L887.2 61.9Q901.4 73.4 919.3 80.5L919.3 80.5Q915.6 83.7 911.2 88.7Q906.9 93.7 903.0 99.1Q899.1 104.5 896.6 108.9L896.6 108.9Q879.0 100.6 865.5 88.5L865.5 88.5Q852.0 101.1 833.9 110L833.9 110Q830.2 103.8 823.8 96.5L823.8 96.5Q821.7 94.2 819.7 91.9L819.7 91.9L819.7 107.7L786.7 107.7ZM705.9 39.0L699.0 4.9Q709.8 2.9 723.3-0.1L723.3-0.1Q726.0-0.6 728.8-1.3L728.8-1.3L728.8-34.2L702.0-34.2L702.0-66.5L728.8-66.5L728.8-108.6L762.9-108.6L762.9-66.5L782.6-66.5L782.6-34.2L762.9-34.2L762.9-8.8Q772.1-10.9 781.0-12.9L781.0-12.9L785.1 19.6Q774.1 22.3 762.9 25.1L762.9 25.1L762.9 72.7Q762.9 84.8 760.3 91.7Q757.6 98.6 750.5 102.4Q743.4 106.3 733.3 107.5Q723.1 108.6 709.3 108.4L709.3 108.4Q708.4 101.8 705.6 92.6Q702.7 83.4 699.5 76.8L699.5 76.8Q706.6 77.0 713.9 77.1Q721.2 77.3 723.8 77.3L723.8 77.3Q726.7 77.3 727.8 76.2Q728.8 75.2 728.8 72.5L728.8 72.5L728.8 33.5Q716.7 36.5 705.9 39.0L705.9 39.0ZM844.2 63.8L844.2 63.8Q839.1 56.7 835.0 48.9L835.0 48.9Q826.3 33.3 819.7 15.0L819.7 15.0L819.7 80.7Q830.4 75.2 839.1 68.1L839.1 68.1Q841.6 66.0 844.2 63.8ZM875.1 10.0L849.7 10.0Q854.7 21.9 861.6 32.6L861.6 32.6Q862.9 35.1 864.5 37.4L864.5 37.4Q869.1 28.7 872.6 18.7L872.6 18.7Q873.9 14.5 875.1 10.0L875.1 10.0Z"/></svg>
